<svg width="4" height="4" viewBox="0 0 4 4" fill="none" xmlns="http://www.w3.org/2000/svg">
<path d="M3.77997 0.220031C3.63321 0.0732769 3.45663 0 3.25001 0H0.749987C0.543371 0 0.366785 0.0732769 0.220031 0.220031C0.0732769 0.366785 0 0.543371 0 0.749987V3.25001C0 3.45663 0.0732769 3.63321 0.220031 3.77997C0.366785 3.92672 0.543371 4 0.749987 4H1.3334C1.37144 4 1.40007 3.9986 1.41929 3.996C1.44165 3.99151 1.46184 3.97959 1.47655 3.96216C1.49557 3.94214 1.50518 3.91311 1.50518 3.87507L1.50378 3.69788C1.50298 3.58496 1.50258 3.49567 1.50258 3.4296L1.44251 3.44001C1.40447 3.44702 1.35642 3.45002 1.29816 3.44922C1.23744 3.4481 1.1769 3.44201 1.11717 3.431C1.05359 3.41926 0.993729 3.39249 0.94259 3.35292C0.889032 3.3124 0.849086 3.25654 0.82807 3.19275L0.802042 3.13269C0.780105 3.08531 0.752545 3.04074 0.719956 2.99995C0.682717 2.9513 0.644877 2.91846 0.606637 2.90105L0.588618 2.88803C0.576054 2.87903 0.564625 2.86855 0.554582 2.8568C0.544991 2.8459 0.537094 2.83361 0.531158 2.82036C0.525952 2.80815 0.530357 2.79814 0.544171 2.79033C0.558186 2.78232 0.583212 2.77852 0.619851 2.77852L0.671905 2.78653C0.706542 2.79333 0.749587 2.81415 0.800641 2.84879C0.852307 2.88402 0.895466 2.93032 0.926973 2.98433C0.967015 3.05541 1.01507 3.10966 1.07153 3.1471C1.12798 3.18434 1.18484 3.20316 1.2421 3.20316C1.29936 3.20316 1.34882 3.19876 1.39066 3.19015C1.43113 3.18178 1.47045 3.16861 1.50778 3.15091C1.5234 3.03479 1.56584 2.94509 1.63532 2.88263C1.5453 2.8738 1.45608 2.85814 1.36844 2.83578C1.28291 2.81228 1.20065 2.77818 1.12358 2.73427C1.04294 2.69037 0.971721 2.63105 0.91396 2.55969C0.858501 2.49021 0.812853 2.39912 0.777216 2.2864C0.741779 2.17348 0.72396 2.04315 0.72396 1.89559C0.72396 1.68557 0.792432 1.50678 0.929576 1.35903C0.865509 1.20126 0.871515 1.02408 0.947795 0.82807C0.998248 0.812253 1.07293 0.824065 1.17183 0.863106C1.27073 0.902147 1.34321 0.935582 1.38926 0.963211C1.43531 0.991241 1.47215 1.01467 1.49997 1.03369C1.66274 0.988388 1.83095 0.965619 1.9999 0.966014C2.17188 0.966014 2.33846 0.988638 2.50003 1.03369L2.59893 0.97122C2.67501 0.925542 2.75525 0.887197 2.83858 0.856699C2.93068 0.821863 3.00075 0.812453 3.0496 0.82807C3.12768 1.02428 3.13449 1.20126 3.07022 1.35923C3.20737 1.50678 3.27604 1.68557 3.27604 1.89579C3.27604 2.04335 3.25822 2.17408 3.22258 2.2876C3.18715 2.40132 3.1411 2.49242 3.08464 2.56109C3.02586 2.63154 2.95434 2.69029 2.87382 2.73427C2.78973 2.78112 2.70804 2.81496 2.62896 2.83578C2.54132 2.85821 2.45211 2.87394 2.36208 2.88283C2.45217 2.96091 2.49742 3.08404 2.49742 3.25242V3.87507C2.49742 3.9045 2.50163 3.92832 2.51044 3.94654C2.51449 3.95532 2.52026 3.96319 2.52741 3.9697C2.53457 3.9762 2.54296 3.98119 2.55208 3.98438C2.5713 3.99119 2.58812 3.9956 2.60293 3.9972C2.61775 3.9992 2.63897 3.9998 2.6666 3.9998H3.25001C3.45663 3.9998 3.63321 3.92652 3.77997 3.77977C3.92652 3.63321 4 3.45643 4 3.24981V0.749987C4 0.543371 3.92672 0.366785 3.77997 0.220031Z" fill="#F9F9F9"/>
</svg>
