<svg width="282" height="282" viewBox="0 0 282 282" fill="none" xmlns="http://www.w3.org/2000/svg">
<path d="M140.782 281.105C63.2822 281.105 0.282227 218.105 0.282227 140.605C0.282227 63.1052 63.2822 0.105225 140.782 0.105225C218.282 0.105225 281.282 63.1052 281.282 140.605C281.282 218.105 218.282 281.105 140.782 281.105ZM140.782 1.90522C64.2822 1.90522 2.08223 64.1052 2.08223 140.605C2.08223 217.105 64.2822 279.305 140.782 279.305C217.282 279.305 279.482 217.105 279.482 140.605C279.482 64.1052 217.282 1.90522 140.782 1.90522Z" fill="black"/>
<path d="M140.782 264.205C72.6823 264.205 17.1823 208.805 17.1823 140.605C17.1823 72.5051 72.5823 17.0051 140.782 17.0051C208.982 17.0051 264.382 72.4051 264.382 140.605C264.382 208.805 208.882 264.205 140.782 264.205ZM140.782 18.8051C73.6823 18.8051 18.9823 73.4051 18.9823 140.605C18.9823 207.705 73.5823 262.405 140.782 262.405C207.982 262.405 262.582 207.805 262.582 140.605C262.582 73.5051 207.882 18.8051 140.782 18.8051Z" fill="black"/>
<path d="M140.782 247.305C81.9823 247.305 34.1823 199.405 34.1823 140.605C34.1823 81.8051 81.9823 34.0051 140.782 34.0051C199.582 34.0051 247.382 81.8051 247.382 140.605C247.382 199.405 199.582 247.305 140.782 247.305ZM140.782 35.8051C82.9823 35.8051 35.9823 82.8051 35.9823 140.605C35.9823 198.405 82.9823 245.405 140.782 245.405C198.582 245.405 245.582 198.405 245.582 140.605C245.582 82.8051 198.582 35.8051 140.782 35.8051Z" fill="black"/>
<path d="M140.782 230.305C91.2823 230.305 51.0823 190.105 51.0823 140.605C51.0823 91.1053 91.2823 50.9053 140.782 50.9053C190.282 50.9053 230.482 91.1053 230.482 140.605C230.482 190.105 190.282 230.305 140.782 230.305ZM140.782 52.7053C92.2823 52.7053 52.8823 92.1053 52.8823 140.605C52.8823 189.105 92.2823 228.505 140.782 228.505C189.282 228.505 228.682 189.105 228.682 140.605C228.682 92.1053 189.282 52.7053 140.782 52.7053Z" fill="black"/>
<path d="M140.782 213.405C100.682 213.405 67.9822 180.805 67.9822 140.605C67.9822 100.405 100.582 67.8052 140.782 67.8052C180.982 67.8052 213.582 100.405 213.582 140.605C213.582 180.805 180.882 213.405 140.782 213.405ZM140.782 69.7052C101.682 69.7052 69.7822 101.505 69.7822 140.705C69.7822 179.905 101.582 211.705 140.782 211.705C179.982 211.705 211.782 179.905 211.782 140.705C211.782 101.505 179.882 69.7052 140.782 69.7052Z" fill="black"/>
<path d="M140.782 196.405C109.982 196.405 84.9822 171.405 84.9822 140.605C84.9822 109.805 109.982 84.8052 140.782 84.8052C171.582 84.8052 196.582 109.805 196.582 140.605C196.582 171.405 171.582 196.405 140.782 196.405ZM140.782 86.6052C110.982 86.6052 86.7822 110.805 86.7822 140.605C86.7822 170.405 110.982 194.605 140.782 194.605C170.582 194.605 194.782 170.405 194.782 140.605C194.782 110.805 170.582 86.6052 140.782 86.6052Z" fill="black"/>
<path d="M140.782 179.505C119.382 179.505 101.882 162.105 101.882 140.605C101.882 119.105 119.282 101.705 140.782 101.705C162.282 101.705 179.682 119.105 179.682 140.605C179.682 162.105 162.182 179.505 140.782 179.505ZM140.782 103.505C120.382 103.505 103.682 120.105 103.682 140.605C103.682 161.105 120.282 177.705 140.782 177.705C161.282 177.705 177.882 161.105 177.882 140.605C177.882 120.105 161.282 103.505 140.782 103.505Z" fill="black"/>
<path d="M140.782 162.605C128.682 162.605 118.782 152.805 118.782 140.605C118.782 128.405 128.582 118.605 140.782 118.605C152.982 118.605 162.782 128.405 162.782 140.605C162.782 152.805 152.882 162.605 140.782 162.605ZM140.782 120.505C129.682 120.505 120.682 129.505 120.682 140.605C120.682 151.705 129.682 160.705 140.782 160.705C151.882 160.705 160.882 151.705 160.882 140.605C160.882 129.505 151.882 120.505 140.782 120.505Z" fill="black"/>
</svg>
