<svg width="281" height="281" viewBox="0 0 281 281" fill="none" xmlns="http://www.w3.org/2000/svg">
<path d="M140.5 281C63 281 0 218 0 140.5C0 63 63 0 140.5 0C218 0 281 63 281 140.5C281 218 218 281 140.5 281ZM140.5 1.8C64 1.8 1.8 64 1.8 140.5C1.8 217 64 279.2 140.5 279.2C217 279.2 279.2 217 279.2 140.5C279.2 64 217 1.8 140.5 1.8Z" fill="url(#paint0_linear_105_4)"/>
<path d="M140.5 264.1C72.4 264.1 16.9 208.7 16.9 140.5C16.9 72.3999 72.3 16.8999 140.5 16.8999C208.7 16.8999 264.1 72.2999 264.1 140.5C264.1 208.7 208.6 264.1 140.5 264.1ZM140.5 18.6999C73.4 18.6999 18.7 73.2999 18.7 140.5C18.7 207.6 73.3 262.3 140.5 262.3C207.7 262.3 262.3 207.7 262.3 140.5C262.3 73.3999 207.6 18.6999 140.5 18.6999Z" fill="url(#paint1_linear_105_4)"/>
<path d="M140.5 247.2C81.7 247.2 33.9 199.3 33.9 140.5C33.9 81.6999 81.7 33.8999 140.5 33.8999C199.3 33.8999 247.1 81.6999 247.1 140.5C247.1 199.3 199.3 247.2 140.5 247.2ZM140.5 35.6999C82.7 35.6999 35.7 82.6999 35.7 140.5C35.7 198.3 82.7 245.3 140.5 245.3C198.3 245.3 245.3 198.3 245.3 140.5C245.3 82.6999 198.3 35.6999 140.5 35.6999Z" fill="url(#paint2_linear_105_4)"/>
<path d="M140.5 230.2C91 230.2 50.8 190 50.8 140.5C50.8 91 91 50.8 140.5 50.8C190 50.8 230.2 91 230.2 140.5C230.2 190 190 230.2 140.5 230.2ZM140.5 52.6C92 52.6 52.6 92 52.6 140.5C52.6 189 92 228.4 140.5 228.4C189 228.4 228.4 189 228.4 140.5C228.4 92 189 52.6 140.5 52.6Z" fill="url(#paint3_linear_105_4)"/>
<path d="M140.5 213.3C100.4 213.3 67.7 180.7 67.7 140.5C67.7 100.3 100.3 67.7 140.5 67.7C180.7 67.7 213.3 100.3 213.3 140.5C213.3 180.7 180.6 213.3 140.5 213.3ZM140.5 69.6C101.4 69.6 69.5 101.4 69.5 140.6C69.5 179.8 101.3 211.6 140.5 211.6C179.7 211.6 211.5 179.8 211.5 140.6C211.5 101.4 179.6 69.6 140.5 69.6Z" fill="url(#paint4_linear_105_4)"/>
<path d="M140.5 196.3C109.7 196.3 84.7 171.3 84.7 140.5C84.7 109.7 109.7 84.7 140.5 84.7C171.3 84.7 196.3 109.7 196.3 140.5C196.3 171.3 171.3 196.3 140.5 196.3ZM140.5 86.5C110.7 86.5 86.5 110.7 86.5 140.5C86.5 170.3 110.7 194.5 140.5 194.5C170.3 194.5 194.5 170.3 194.5 140.5C194.5 110.7 170.3 86.5 140.5 86.5Z" fill="url(#paint5_linear_105_4)"/>
<path d="M140.5 179.4C119.1 179.4 101.6 162 101.6 140.5C101.6 119 119 101.6 140.5 101.6C162 101.6 179.4 119 179.4 140.5C179.4 162 161.9 179.4 140.5 179.4ZM140.5 103.4C120.1 103.4 103.4 120 103.4 140.5C103.4 161 120 177.6 140.5 177.6C161 177.6 177.6 161 177.6 140.5C177.6 120 161 103.4 140.5 103.4Z" fill="url(#paint6_linear_105_4)"/>
<path d="M140.5 162.5C128.4 162.5 118.5 152.7 118.5 140.5C118.5 128.3 128.3 118.5 140.5 118.5C152.7 118.5 162.5 128.3 162.5 140.5C162.5 152.7 152.6 162.5 140.5 162.5ZM140.5 120.4C129.4 120.4 120.4 129.4 120.4 140.5C120.4 151.6 129.4 160.6 140.5 160.6C151.6 160.6 160.6 151.6 160.6 140.5C160.6 129.4 151.6 120.4 140.5 120.4Z" fill="url(#paint7_linear_105_4)"/>
<defs>
<linearGradient id="paint0_linear_105_4" x1="140.5" y1="0" x2="140.5" y2="281" gradientUnits="userSpaceOnUse">
<stop stop-color="#C2DF3A"/>
<stop offset="1" stop-color="#A178B9"/>
</linearGradient>
<linearGradient id="paint1_linear_105_4" x1="140.5" y1="16.8999" x2="140.5" y2="264.1" gradientUnits="userSpaceOnUse">
<stop stop-color="#C2DF3A"/>
<stop offset="1" stop-color="#A178B9"/>
</linearGradient>
<linearGradient id="paint2_linear_105_4" x1="140.5" y1="33.8999" x2="140.5" y2="247.2" gradientUnits="userSpaceOnUse">
<stop stop-color="#C2DF3A"/>
<stop offset="1" stop-color="#A178B9"/>
</linearGradient>
<linearGradient id="paint3_linear_105_4" x1="140.5" y1="50.8" x2="140.5" y2="230.2" gradientUnits="userSpaceOnUse">
<stop stop-color="#C2DF3A"/>
<stop offset="1" stop-color="#A178B9"/>
</linearGradient>
<linearGradient id="paint4_linear_105_4" x1="140.5" y1="67.7" x2="140.5" y2="213.3" gradientUnits="userSpaceOnUse">
<stop stop-color="#C2DF3A"/>
<stop offset="1" stop-color="#A178B9"/>
</linearGradient>
<linearGradient id="paint5_linear_105_4" x1="140.5" y1="84.7" x2="140.5" y2="196.3" gradientUnits="userSpaceOnUse">
<stop stop-color="#C2DF3A"/>
<stop offset="1" stop-color="#A178B9"/>
</linearGradient>
<linearGradient id="paint6_linear_105_4" x1="140.5" y1="101.6" x2="140.5" y2="179.4" gradientUnits="userSpaceOnUse">
<stop stop-color="#C2DF3A"/>
<stop offset="1" stop-color="#A178B9"/>
</linearGradient>
<linearGradient id="paint7_linear_105_4" x1="140.5" y1="118.5" x2="140.5" y2="162.5" gradientUnits="userSpaceOnUse">
<stop stop-color="#C2DF3A"/>
<stop offset="1" stop-color="#A178B9"/>
</linearGradient>
</defs>
</svg>
