<svg width="4" height="4" viewBox="0 0 4 4" fill="none" xmlns="http://www.w3.org/2000/svg">
<path d="M3.40819 3.4082H2.81552V2.47997C2.81552 2.25863 2.81156 1.97369 2.50727 1.97369C2.19858 1.97369 2.15134 2.21486 2.15134 2.46386V3.40814H1.55869V1.49933H2.12764V1.76019H2.13561C2.19255 1.66282 2.27483 1.58273 2.37369 1.52843C2.47254 1.47413 2.58428 1.44766 2.69698 1.45184C3.29769 1.45184 3.40844 1.84699 3.40844 2.36106L3.40819 3.4082ZM0.889938 1.23842C0.699984 1.23845 0.545969 1.08447 0.545937 0.894507C0.545906 0.704541 0.699859 0.550515 0.889812 0.550484C1.07977 0.550437 1.23378 0.704416 1.23381 0.894381C1.23383 0.985607 1.19761 1.0731 1.13312 1.13762C1.06863 1.20214 0.981157 1.2384 0.889938 1.23842ZM1.18628 3.40822H0.592984V1.49933H1.18627L1.18628 3.40822ZM3.70366 2.55517e-05H0.295172C0.134078 -0.00178707 0.00196875 0.127268 0 0.288373V3.7113C0.00190625 3.87248 0.134 4.00166 0.295156 3.99998H3.70366C3.86516 4.00198 3.99777 3.8728 4 3.7113V0.288107C3.9977 0.12669 3.86508 -0.00208396 3.70366 2.55517e-05Z" fill="#0A66C2"/>
</svg>
