<svg width="143" height="89" viewBox="0 0 143 89" fill="none" xmlns="http://www.w3.org/2000/svg">
<path d="M0.109131 82.3275C7.80913 76.6275 15.0091 77.6275 20.7091 78.5275C26.0091 79.3275 30.2091 79.9275 35.3091 76.2275C40.4091 72.4275 41.0091 68.2276 41.8091 62.9276C42.6091 57.2276 43.7091 50.1275 51.4091 44.3275C59.1091 38.6275 66.3092 39.6275 72.0092 40.5275C77.3092 41.3275 81.5091 41.9275 86.6091 38.2275C91.7091 34.4275 92.3091 30.2276 93.1091 24.9276C93.9091 19.2276 95.0091 12.1275 102.709 6.32751C110.409 0.627515 117.609 1.62753 123.309 2.52753C128.609 3.32753 132.809 3.92754 137.909 0.227539L142.709 6.6275C135.009 12.3275 127.809 11.3276 122.109 10.4276C116.809 9.62755 112.609 9.02754 107.509 12.7275C102.409 16.5275 101.809 20.7275 101.009 26.0275C100.209 31.7275 99.1091 38.8275 91.4091 44.6275C83.7091 50.3275 76.5091 49.3276 70.8091 48.4276C65.5091 47.6276 61.3091 47.0275 56.2091 50.7275C51.1091 54.5275 50.5091 58.7275 49.7091 64.0275C48.9091 69.7275 47.8091 76.8275 40.1091 82.6275C32.4091 88.3275 25.2092 87.3276 19.5092 86.4276C14.2092 85.6275 10.0091 85.0275 4.90912 88.7275L0.109131 82.3275Z" fill="black"/>
</svg>
