<svg width="4" height="4" viewBox="0 0 4 4" fill="none" xmlns="http://www.w3.org/2000/svg">
<path d="M0.0853686 1.98261C0.0852749 2.3198 0.173775 2.64904 0.342056 2.93924L0.0692749 3.93077L1.08852 3.66471C1.37044 3.8175 1.6863 3.89756 2.00727 3.89758H2.00812C3.06773 3.89758 3.93027 3.03919 3.93073 1.98412C3.93093 1.47286 3.73112 0.992109 3.36809 0.630418C3.00512 0.268757 2.52238 0.0694777 2.00804 0.0692444C0.948306 0.0692444 0.0858218 0.927586 0.0853843 1.98261" fill="url(#paint0_linear_4_66)"/>
<path d="M0.0167188 1.98199C0.0166094 2.33132 0.108281 2.67234 0.282562 2.97293L0 4L1.0558 3.72441C1.3467 3.88231 1.67423 3.96556 2.00752 3.96568H2.00837C3.106 3.96568 3.99953 3.07642 4 1.98358C4.00019 1.45395 3.79319 0.95592 3.41719 0.581271C3.04114 0.206668 2.54114 0.000217774 2.00837 0C0.910562 0 0.0171563 0.889141 0.0167188 1.98199ZM0.645469 2.92116L0.606047 2.85886C0.440328 2.59654 0.352859 2.2934 0.352984 1.98212C0.353344 1.07377 1.09591 0.33475 2.009 0.33475C2.45119 0.334937 2.86675 0.506543 3.17931 0.817898C3.49186 1.12928 3.66384 1.54321 3.66373 1.98346C3.66333 2.89181 2.92075 3.63092 2.00837 3.63092H2.00772C1.71064 3.63076 1.41928 3.55134 1.16519 3.40125L1.10472 3.36555L0.478188 3.52908L0.645469 2.92115V2.92116Z" fill="url(#paint1_linear_4_66)"/>
<path d="M1.51062 1.1534C1.47334 1.07091 1.4341 1.06925 1.39865 1.0678C1.36962 1.06656 1.33643 1.06665 1.30327 1.06665C1.27009 1.06665 1.21616 1.07908 1.17059 1.12862C1.12496 1.17821 0.996399 1.29805 0.996399 1.54179C0.996399 1.78554 1.17473 2.02109 1.19959 2.05418C1.22448 2.0872 1.54385 2.60339 2.04966 2.80197C2.47004 2.967 2.55559 2.93418 2.64682 2.9259C2.73807 2.91766 2.94126 2.80609 2.98271 2.69041C3.0242 2.57474 3.0242 2.47559 3.01176 2.45487C2.99932 2.43423 2.96613 2.42183 2.91637 2.39707C2.86659 2.37229 2.62193 2.25243 2.57632 2.2359C2.5307 2.21938 2.49752 2.21113 2.46434 2.26074C2.43115 2.31027 2.33585 2.42183 2.30681 2.45487C2.27779 2.48799 2.24874 2.49211 2.19899 2.46733C2.1492 2.44247 1.98893 2.39022 1.79879 2.22146C1.65085 2.09014 1.55098 1.92798 1.52195 1.87837C1.49291 1.82885 1.51884 1.802 1.54379 1.77731C1.56615 1.75511 1.59357 1.71946 1.61848 1.69054C1.64329 1.66161 1.65157 1.64097 1.66816 1.60793C1.68477 1.57486 1.67646 1.54593 1.66404 1.52115C1.65157 1.49637 1.55487 1.25136 1.51062 1.1534Z" fill="#F9F9F9"/>
<defs>
<linearGradient id="paint0_linear_4_66" x1="193.142" y1="386.222" x2="193.142" y2="0.0692444" gradientUnits="userSpaceOnUse">
<stop stop-color="#1FAF38"/>
<stop offset="1" stop-color="#60D669"/>
</linearGradient>
<linearGradient id="paint1_linear_4_66" x1="200" y1="400" x2="200" y2="0" gradientUnits="userSpaceOnUse">
<stop stop-color="#F9F9F9"/>
<stop offset="1" stop-color="white"/>
</linearGradient>
</defs>
</svg>
