<svg width="128" height="129" viewBox="0 0 128 129" fill="none" xmlns="http://www.w3.org/2000/svg">
<path d="M66.0692 124.511C65.8411 122.231 67.4371 120.178 69.7172 119.95C71.9972 119.722 74.0492 121.319 74.2772 123.599C74.5052 125.879 72.9092 127.931 70.6292 128.159C70.4012 128.159 70.1732 128.159 70.1732 128.159C68.1211 128.159 66.2972 126.791 66.0692 124.511ZM40.077 124.511C38.0249 123.599 36.8849 121.319 37.7969 119.267C38.4809 117.215 40.989 116.074 43.041 116.758C45.093 117.67 46.233 119.95 45.549 122.002C44.865 123.599 43.269 124.739 41.673 124.739C40.989 124.739 40.533 124.739 40.077 124.511ZM93.8853 116.302C92.5173 114.478 92.9733 111.97 95.0253 110.602C96.8494 109.234 99.3574 109.69 100.725 111.742C102.093 113.566 101.637 116.074 99.5854 117.442C98.9014 117.898 97.9894 118.127 97.3054 118.127C95.9373 117.899 94.5693 117.442 93.8853 116.302ZM14.5408 106.954C12.9448 105.358 13.1728 102.622 14.7688 101.026C16.3648 99.4304 19.1008 99.6583 20.6968 101.482C22.2928 103.078 22.0648 105.814 20.2408 107.41C19.5568 108.094 18.4168 108.55 17.5048 108.55C16.5928 108.322 15.4528 107.866 14.5408 106.954ZM114.405 95.7823C112.353 94.6423 111.669 92.1343 112.581 90.3103C113.721 88.2583 116.229 87.5743 118.053 88.4863C120.105 89.6263 120.79 92.1343 119.877 93.9583C119.193 95.3263 117.597 96.2383 116.229 96.2383C115.773 96.2383 115.089 96.2383 114.405 95.7823ZM0.176683 79.8222C-0.27932 77.5422 1.0887 75.4902 3.14071 74.8062C5.42073 74.3502 7.47273 75.4902 8.15674 77.7702C8.61274 80.0502 7.24472 82.1023 5.19271 82.7863C4.96471 82.7863 4.50872 83.0143 4.28072 83.0143C2.45671 82.7863 0.632686 81.6462 0.176683 79.8222ZM119.193 64.0901C119.193 61.5821 121.018 59.7581 123.298 59.7581C125.578 59.7581 127.402 61.5821 127.402 63.8621C127.402 63.8621 127.402 63.8621 127.402 64.0901C127.402 64.0901 127.402 64.0901 127.402 64.3181C127.402 66.5981 125.578 68.4221 123.298 68.4221C121.018 68.1941 119.193 66.3701 119.193 64.0901ZM3.14071 53.83C0.860695 53.374 -0.507322 51.0941 0.176683 48.814C0.632686 46.534 2.91269 45.166 5.19271 45.85C7.47273 46.306 8.84074 48.586 8.15674 50.866C7.70073 52.6901 6.10472 54.0581 4.0527 54.0581C3.8247 54.0581 3.59671 53.83 3.14071 53.83ZM112.581 37.8699C111.441 35.8179 112.353 33.3099 114.405 32.3979C116.457 31.2579 118.965 32.1699 119.877 33.9939C121.018 36.046 120.106 38.554 118.281 39.466C117.597 39.694 116.913 39.9219 116.457 39.9219C114.633 40.1499 113.265 39.2379 112.581 37.8699ZM14.7688 27.3818C13.1728 25.7858 12.9448 23.2778 14.3128 21.6818C15.9088 19.8578 18.4168 19.8578 20.0128 21.2258C21.6088 22.8219 21.8369 25.3299 20.4688 27.1539C19.5568 28.0659 18.4168 28.5219 17.2768 28.5219C16.5928 28.2939 15.6808 28.0659 14.7688 27.3818ZM94.5693 17.8058C92.7453 16.4378 92.2893 13.9298 93.4293 12.1058C94.7973 10.2818 97.3054 9.82577 99.1294 10.9658C100.953 12.3338 101.409 14.8418 100.269 16.6658C99.5854 17.8058 98.2174 18.4898 96.8494 18.4898C96.1654 18.4898 95.2533 18.2618 94.5693 17.8058ZM37.3409 9.14172C36.4289 7.08971 37.5689 4.58172 39.621 3.89772C41.673 2.98571 44.181 4.12572 44.865 6.17773C45.777 8.22975 44.637 10.7377 42.585 11.4217C42.129 11.6497 41.673 11.6498 41.217 11.6498C39.621 11.8778 38.0249 10.9657 37.3409 9.14172ZM69.4892 8.22973C67.2092 8.00173 65.6131 5.94972 65.8411 3.6697C66.0691 1.38969 68.1212 -0.20634 70.4012 0.0216618C72.6812 0.249663 74.2772 2.30168 74.0492 4.58169C73.8212 6.63371 71.9972 8.22973 69.9452 8.22973C69.7172 8.45773 69.7172 8.22973 69.4892 8.22973Z" fill="#C2DF3A"/>
<path d="M65.6131 113.567C65.3851 111.743 66.7531 110.147 68.5771 109.919C70.4011 109.691 71.9972 111.059 72.2252 112.883C72.4532 114.707 71.0852 116.303 69.2611 116.531C69.0331 116.531 69.0332 116.531 68.8052 116.531C67.2091 116.531 65.6131 115.391 65.6131 113.567ZM44.181 113.567C42.357 112.883 41.673 111.059 42.129 109.235C42.813 107.411 44.637 106.727 46.461 107.183C48.285 107.867 48.969 109.691 48.513 111.515C48.057 112.883 46.689 113.795 45.321 113.795C44.865 113.795 44.637 113.795 44.181 113.567ZM88.1853 106.727C87.0453 105.131 87.5013 103.079 89.0973 101.938C90.6933 100.798 92.7453 101.254 93.8853 102.85C95.0253 104.446 94.5693 106.499 92.9733 107.639C92.2893 108.095 91.6053 108.323 91.1493 108.323C89.7813 108.095 88.8693 107.639 88.1853 106.727ZM23.4328 99.2024C22.2928 97.8344 22.2928 95.7825 23.6608 94.4145C25.0288 93.2745 27.0809 93.2744 28.4489 94.6424C29.5889 96.0104 29.5889 98.0625 28.2209 99.4305C27.5369 99.8865 26.8529 100.342 25.9409 100.342C25.0288 100.342 24.1168 99.8865 23.4328 99.2024ZM105.057 90.0824C103.461 89.1704 102.777 87.1184 103.689 85.5224C104.601 83.9263 106.653 83.2424 108.249 84.1544C109.845 85.0664 110.529 87.1184 109.617 88.7144C108.933 89.8544 107.793 90.5384 106.653 90.5384C105.969 90.5384 105.513 90.3104 105.057 90.0824ZM11.5767 76.8583C11.1207 75.0343 12.2608 73.2103 14.0848 72.7543C15.9088 72.2983 17.7328 73.4383 18.1888 75.2623C18.6448 77.0863 17.5048 78.9104 15.6808 79.3664C15.4528 79.3664 15.2248 79.3664 14.7688 79.3664C13.4008 79.3664 12.0327 78.4543 11.5767 76.8583ZM108.933 64.0902C108.933 62.0382 110.529 60.4422 112.353 60.4422C114.177 60.4422 115.773 62.0382 115.773 63.8622C115.773 65.6862 114.177 67.2822 112.353 67.2822C110.301 67.5102 108.933 66.1422 108.933 64.0902ZM14.0848 55.6542C12.2608 55.1982 11.1207 53.3742 11.5767 51.5501C12.0327 49.7261 13.8568 48.5861 15.6808 49.0421C17.5048 49.4981 18.6448 51.3222 18.1888 53.1462C17.7328 54.7422 16.3648 55.6542 14.9968 55.6542C14.5408 55.8822 14.3128 55.8822 14.0848 55.6542ZM103.461 42.6581C102.549 41.0621 103.233 39.0101 104.829 38.0981C106.425 37.1861 108.477 37.8701 109.389 39.4661C110.301 41.0621 109.617 43.1141 108.021 44.0261C107.565 44.2541 106.881 44.4821 106.425 44.4821C105.285 44.4821 104.145 43.7981 103.461 42.6581ZM23.6608 33.9941C22.2928 32.8541 22.0648 30.574 23.4328 29.206C24.5728 27.838 26.8529 27.61 28.2209 28.978C29.5889 30.118 29.8169 32.398 28.4489 33.7661C27.7649 34.4501 26.8529 34.9061 25.9409 34.9061C25.0288 34.9061 24.1168 34.6781 23.6608 33.9941ZM88.8693 26.242C87.2733 25.102 87.0453 23.05 87.9573 21.454C89.0973 19.858 91.1493 19.6299 92.7453 20.5419C94.3413 21.6819 94.5693 23.734 93.6573 25.33C92.9733 26.242 91.8333 26.698 90.9213 26.698C90.0093 26.926 89.5533 26.698 88.8693 26.242ZM42.129 19.174C41.445 17.35 42.3569 15.5259 43.953 14.8419C45.777 14.1579 47.601 15.0699 48.285 16.894C48.969 18.718 48.057 20.542 46.461 21.226C46.005 21.454 45.549 21.454 45.321 21.454C43.725 21.454 42.585 20.542 42.129 19.174ZM68.3492 18.4899C66.5251 18.2619 65.1571 16.6659 65.3851 14.8419C65.6131 13.0179 67.2091 11.6499 69.0331 11.8779C70.8571 12.1059 72.2252 13.7019 71.9972 15.5259C71.7692 17.3499 70.4011 18.4899 68.5771 18.4899H68.3492Z" fill="#C2DF3A"/>
<path d="M64.9291 104.218C64.7011 102.622 65.8411 101.254 67.2091 101.254C68.8051 101.026 70.1731 102.166 70.1731 103.534C70.4011 104.902 69.2611 106.498 67.8931 106.498H67.6651C66.2971 106.726 65.1571 105.586 64.9291 104.218ZM47.829 104.218C46.461 103.762 45.7769 102.166 46.2329 100.798C46.6889 99.4302 48.285 98.7462 49.653 99.2022C51.021 99.6582 51.705 101.254 51.249 102.622C50.793 103.762 49.881 104.446 48.741 104.446C48.285 104.446 48.057 104.218 47.829 104.218ZM83.3972 98.7462C82.4852 97.6062 82.9412 95.7822 84.0812 94.8702C85.2212 93.9582 87.0452 94.4142 87.9572 95.5542C88.8692 96.6942 88.4132 98.5182 87.2732 99.4302C86.8172 99.6582 86.3612 99.8862 85.6772 99.8862C84.7652 99.8862 83.8532 99.4302 83.3972 98.7462ZM30.9568 92.5901C30.0448 91.4501 30.0449 89.8542 31.1849 88.7142C32.3249 87.8022 34.1489 87.8021 35.0609 88.9421C35.9729 90.0821 35.9729 91.9062 34.8329 92.8182C34.3769 93.2742 33.6929 93.5021 33.0089 93.5021C32.0969 93.5021 31.4129 93.2742 30.9568 92.5901ZM97.0773 85.2941C95.7093 84.6101 95.2533 83.0141 95.9373 81.6461C96.6213 80.2781 98.2173 79.8221 99.5853 80.5061C100.953 81.1901 101.409 82.7861 100.725 84.1541C100.269 85.0661 99.3573 85.5221 98.2173 85.5221C97.7613 85.5221 97.5333 85.2941 97.0773 85.2941ZM21.3808 74.578C20.9248 73.21 21.8368 71.614 23.4328 71.158C24.8008 70.702 26.3968 71.614 26.8528 73.21C27.3088 74.578 26.3968 76.174 24.8008 76.63C24.5728 76.63 24.3448 76.63 24.1168 76.63C22.7488 76.63 21.6088 75.718 21.3808 74.578ZM100.041 64.09C100.041 62.4939 101.181 61.126 102.777 61.126C104.373 61.126 105.513 62.2659 105.513 63.8619C105.513 65.458 104.373 66.598 102.777 66.598C101.409 66.826 100.041 65.686 100.041 64.09ZM23.2048 57.2499C21.8368 56.7939 20.9248 55.4259 21.1528 54.0579C21.6088 52.6899 22.9768 51.7779 24.3448 52.0059C25.7128 52.4619 26.6248 53.8299 26.3968 55.4259C26.1688 56.5659 25.0288 57.4779 23.6608 57.4779C23.6608 57.4779 23.4328 57.4779 23.2048 57.2499ZM95.7093 46.7618C95.0253 45.3938 95.4813 43.7979 96.8493 43.1139C98.2173 42.4299 99.8133 42.8859 100.497 44.2539C101.181 45.6219 100.725 47.2178 99.3573 47.9018C98.9013 48.1298 98.4453 48.1298 97.9893 48.1298C97.3053 48.1298 96.3933 47.6738 95.7093 46.7618ZM30.9568 39.6938C29.8168 38.7818 29.8169 36.9578 30.7289 35.8178C31.6409 34.6778 33.4649 34.6778 34.6049 35.5898C35.7449 36.5018 35.7449 38.3258 34.8329 39.4658C34.3769 40.1498 33.4649 40.3778 32.7809 40.3778C32.0969 40.3778 31.6409 40.1498 30.9568 39.6938ZM83.8532 33.5378C82.7132 32.6258 82.2572 31.0297 83.1692 29.6617C84.0812 28.5217 85.6772 28.0657 87.0452 28.9777C88.1853 29.8897 88.6413 31.4858 87.7293 32.8538C87.2733 33.5378 86.3612 33.9938 85.4492 33.9938C84.9932 33.9938 84.3092 33.7658 83.8532 33.5378ZM46.005 27.8377C45.549 26.4697 46.233 24.8737 47.601 24.4177C48.969 23.9617 50.565 24.6457 51.021 26.0137C51.477 27.3817 50.793 28.9778 49.425 29.4338C49.197 29.6618 48.741 29.6617 48.513 29.6617C47.373 29.4337 46.461 28.7497 46.005 27.8377ZM67.2091 27.1537C65.6131 26.9257 64.7011 25.5577 64.7011 24.1897C64.9291 22.5937 66.2971 21.6817 67.6651 21.9097C69.2611 22.1377 70.1731 23.5057 69.9451 24.8737C69.7171 26.2417 68.5771 27.3817 67.2091 27.3817C67.4371 27.1537 67.4371 27.1537 67.2091 27.1537Z" fill="#C2DF3A"/>
</svg>
