<svg width="61" height="61" viewBox="0 0 61 61" fill="none" xmlns="http://www.w3.org/2000/svg">
<path d="M55.9007 43.8213C54.9007 43.4213 54.5007 42.2213 54.9007 41.3213C55.3007 40.3213 56.5007 39.9213 57.4007 40.3213C58.4007 40.7213 58.8007 41.9213 58.4007 42.8213C58.4007 42.9213 58.3007 42.9213 58.3007 43.0213C57.9007 43.8213 56.8007 44.2213 55.9007 43.8213Z" fill="#C2DF3A"/>
<path d="M49.8006 54.3213C49.0006 55.0213 47.8006 54.8213 47.1006 54.0213C46.4006 53.2213 46.6006 52.0213 47.4006 51.3213C48.2006 50.6213 49.4006 50.8213 50.1006 51.6213C50.6006 52.2213 50.7006 53.1213 50.3006 53.8213C50.1006 54.0213 50.0006 54.1213 49.8006 54.3213Z" fill="#C2DF3A"/>
<path d="M59.0006 30.6211C57.9006 30.7211 57.0007 29.9211 56.9007 28.8211C56.8007 27.7211 57.6006 26.8211 58.7006 26.7211C59.8006 26.6211 60.7007 27.4211 60.8007 28.5211C60.8007 28.9211 60.7006 29.3211 60.5006 29.6211C60.2006 30.2211 59.7006 30.5211 59.0006 30.6211Z" fill="#C2DF3A"/>
<path d="M36.7006 60.5212C35.7006 60.7212 34.6007 60.0212 34.4007 59.0212C34.2007 58.0212 34.9007 56.9212 35.9007 56.7212C36.9007 56.5212 38.0006 57.2212 38.2006 58.2212C38.3006 58.7212 38.2006 59.2212 38.0006 59.5212C37.7006 60.0212 37.3006 60.3212 36.7006 60.5212Z" fill="#C2DF3A"/>
<path d="M55.6007 17.5211C54.7007 18.1211 53.5007 17.8211 52.9007 16.9211C52.3007 16.0211 52.6006 14.8211 53.5006 14.2211C54.4006 13.6211 55.6007 13.9211 56.2007 14.8211C56.6007 15.4211 56.6007 16.2211 56.2007 16.8211C56.1007 17.1211 55.9007 17.3211 55.6007 17.5211Z" fill="#C2DF3A"/>
<path d="M22.3006 59.9213C21.3006 59.6213 20.7006 58.5213 21.0006 57.5213C21.3006 56.5213 22.4006 55.9213 23.4006 56.2213C24.4006 56.5213 25.0006 57.6213 24.7006 58.6213C24.7006 58.8213 24.6006 58.9213 24.5006 59.0213C24.1006 59.7213 23.2006 60.1213 22.3006 59.9213Z" fill="#C2DF3A"/>
<path d="M43.9006 8.12109C43.8006 8.12109 43.8006 8.12109 43.9006 8.12109C42.9006 7.52109 42.6006 6.32109 43.1006 5.42109C43.6006 4.52109 44.8006 4.22109 45.7006 4.72109C45.7006 4.72109 45.7006 4.72109 45.8006 4.72109C45.8006 4.72109 45.8006 4.72109 45.9006 4.72109C46.8006 5.22109 47.1006 6.42108 46.6006 7.32108C46.0006 8.32108 44.8006 8.72109 43.9006 8.12109Z" fill="#C2DF3A"/>
<path d="M12.5006 52.6211C11.8006 53.4211 10.5006 53.4211 9.80064 52.7211C9.00064 52.0211 9.00061 50.7211 9.70061 50.0211C10.4006 49.2211 11.7006 49.2211 12.4006 49.9211C13.1006 50.5211 13.2006 51.5211 12.7006 52.3211C12.7006 52.4211 12.6006 52.5211 12.5006 52.6211Z" fill="#C2DF3A"/>
<path d="M31.7006 4.62119C30.6006 4.62119 29.8007 3.72119 29.9007 2.62119C29.9007 1.52119 30.8007 0.721183 31.9007 0.821183C33.0007 0.821183 33.8007 1.72118 33.8007 2.82118C33.8007 3.12118 33.7006 3.42119 33.5006 3.72119C33.1006 4.22119 32.5006 4.62119 31.7006 4.62119Z" fill="#C2DF3A"/>
<path d="M4.50059 41.7211C3.50059 42.0211 2.40062 41.5211 2.10062 40.5211C1.80062 39.5211 2.30064 38.4211 3.30064 38.1211C4.30064 37.8211 5.4006 38.3211 5.7006 39.3211C5.9006 39.8211 5.80059 40.4211 5.50059 40.9211C5.30059 41.2211 5.00059 41.5211 4.50059 41.7211Z" fill="#C2DF3A"/>
<path d="M19.4006 7.12126C18.4006 7.62126 17.3007 7.22127 16.8007 6.22127C16.3007 5.22127 16.8006 4.12126 17.7006 3.62126C18.7006 3.12126 19.8007 3.52127 20.3007 4.52127C20.6007 5.12127 20.5006 5.82126 20.2006 6.32126C20.0006 6.72126 19.8006 6.92126 19.4006 7.12126Z" fill="#C2DF3A"/>
<path d="M2.50061 28.3211C1.40061 28.1211 0.700631 27.1211 0.900631 26.1211C1.10063 25.0211 2.10064 24.3211 3.10064 24.5211C4.20064 24.7211 4.90062 25.7211 4.70062 26.7211C4.70062 26.9211 4.60061 27.2211 4.50061 27.4211C4.10061 28.0211 3.30061 28.4211 2.50061 28.3211Z" fill="#C2DF3A"/>
<path d="M9.60063 15.1212C9.00063 15.9212 7.80062 16.1212 6.90062 15.5212C6.10062 14.9212 5.90059 13.7211 6.50059 12.8211C7.10059 11.9211 8.3006 11.8212 9.2006 12.4212C10.0006 13.0212 10.2006 14.1212 9.7006 14.9212C9.7006 15.0212 9.70063 15.0212 9.60063 15.1212Z" fill="#C2DF3A"/>
<path d="M51.3007 41.4212C50.5007 41.1212 50.1006 40.1212 50.5006 39.3212C50.8006 38.5212 51.8006 38.1212 52.6006 38.5212C53.4006 38.8212 53.8006 39.8212 53.4006 40.6212C53.4006 40.7212 53.3007 40.7212 53.3007 40.8212C52.9007 41.4212 52.1007 41.7212 51.3007 41.4212Z" fill="#C2DF3A"/>
<path d="M46.3006 50.0211C45.6006 50.6211 44.6006 50.4211 44.1006 49.8211C43.5006 49.1211 43.6006 48.1211 44.3006 47.6211C45.0006 47.0211 46.0006 47.2211 46.5006 47.8211C46.9006 48.3211 47.0006 49.0211 46.6006 49.6211C46.6006 49.8211 46.5006 49.9211 46.3006 50.0211Z" fill="#C2DF3A"/>
<path d="M53.9006 30.6213C53.0006 30.7213 52.3006 30.0213 52.2006 29.2213C52.1006 28.3213 52.8006 27.6213 53.6006 27.5213C54.5006 27.4213 55.2006 28.1213 55.3006 28.9213C55.3006 29.2213 55.2006 29.5213 55.1006 29.8213C54.9006 30.3213 54.4006 30.6213 53.9006 30.6213Z" fill="#C2DF3A"/>
<path d="M35.6007 55.1212C34.7007 55.3212 33.9006 54.7212 33.7006 53.9212C33.5006 53.0212 34.1006 52.2212 34.9006 52.0212C35.8006 51.8212 36.6007 52.4212 36.8007 53.2212C36.9007 53.6212 36.8007 54.0212 36.6007 54.3212C36.5007 54.7212 36.1007 55.0212 35.6007 55.1212Z" fill="#C2DF3A"/>
<path d="M51.1006 19.9212C50.4006 20.4212 49.4006 20.1212 48.9006 19.4212C48.4006 18.7212 48.7006 17.7212 49.4006 17.2212C50.1006 16.7212 51.1006 17.0212 51.6006 17.7212C51.9006 18.2212 51.9006 18.8212 51.6006 19.3212C51.5006 19.6212 51.3006 19.8212 51.1006 19.9212Z" fill="#C2DF3A"/>
<path d="M23.8006 54.6211C23.0006 54.4211 22.5006 53.5211 22.7006 52.6211C22.9006 51.8211 23.8006 51.3212 24.7006 51.5212C25.5006 51.7212 26.0006 52.6212 25.8006 53.5212C25.8006 53.6212 25.7006 53.7211 25.6006 53.9211C25.3006 54.5211 24.5006 54.8211 23.8006 54.6211Z" fill="#C2DF3A"/>
<path d="M41.5006 12.3213C41.5006 12.2213 41.5006 12.2213 41.5006 12.3213C40.7006 11.8213 40.4007 10.9213 40.8007 10.1213C41.2007 9.32128 42.2006 9.12129 43.0006 9.52129C43.8006 9.92129 44.0007 10.9213 43.6007 11.7213C43.2007 12.4213 42.3006 12.7213 41.5006 12.3213Z" fill="#C2DF3A"/>
<path d="M15.8006 48.7213C15.2006 49.3213 14.2006 49.4213 13.6006 48.7213C13.0006 48.1213 13.0006 47.1213 13.6006 46.5213C14.2006 45.9213 15.2006 45.9213 15.8006 46.5213C16.3006 47.0213 16.4006 47.8213 16.1006 48.4213C16.0006 48.5213 15.9006 48.6213 15.8006 48.7213Z" fill="#C2DF3A"/>
<path d="M31.5006 9.4213C30.6006 9.4213 30.0006 8.62129 30.0006 7.82129C30.0006 6.92129 30.8006 6.32129 31.6006 6.32129C32.5006 6.32129 33.2006 7.1213 33.1006 7.9213C33.1006 8.2213 33.0006 8.42129 32.9006 8.62129C32.7006 9.12129 32.1006 9.4213 31.5006 9.4213Z" fill="#C2DF3A"/>
<path d="M9.30065 39.7213C8.50065 40.0213 7.60065 39.5213 7.30065 38.7213C7.00065 37.9213 7.50065 37.0213 8.30065 36.7213C9.10065 36.4213 10.0006 36.9213 10.3006 37.7213C10.4006 38.1213 10.4006 38.6213 10.2006 39.0213C10.0006 39.3213 9.70065 39.6213 9.30065 39.7213Z" fill="#C2DF3A"/>
<path d="M21.4006 11.4212C20.6006 11.8212 19.7006 11.4212 19.3006 10.6212C18.9006 9.8212 19.3006 8.92121 20.0006 8.52121C20.8006 8.12121 21.7006 8.52121 22.1006 9.22121C22.3006 9.72121 22.3006 10.2212 22.0006 10.7212C22.0006 11.1212 21.7006 11.3212 21.4006 11.4212Z" fill="#C2DF3A"/>
<path d="M7.60063 28.7213C6.70063 28.6213 6.20064 27.8213 6.30064 26.9213C6.40064 26.0213 7.20063 25.5213 8.10063 25.6213C9.00063 25.7213 9.50062 26.5213 9.40062 27.4213C9.40062 27.6213 9.30061 27.8213 9.20061 27.9213C8.90061 28.5213 8.30063 28.9213 7.60063 28.7213Z" fill="#C2DF3A"/>
<path d="M13.5006 18.0213C13.0006 18.7213 12.0006 18.8213 11.3006 18.3213C10.6006 17.8213 10.5006 16.8213 11.0006 16.1213C11.5006 15.4213 12.5006 15.3213 13.2006 15.8213C13.8006 16.3213 14.0006 17.2213 13.6006 17.9213C13.5006 17.9213 13.5006 17.9213 13.5006 18.0213Z" fill="#C2DF3A"/>
<path d="M47.4006 39.4212C46.8006 39.1212 46.5006 38.4212 46.7006 37.7212C47.0006 37.1212 47.7006 36.7212 48.4006 37.0212C49.0006 37.3212 49.3006 38.0212 49.1006 38.7212C49.1006 38.7212 49.1006 38.8212 49.0006 38.8212C48.7006 39.4212 48.0006 39.7212 47.4006 39.4212Z" fill="#C2DF3A"/>
<path d="M43.3007 46.4211C42.8007 46.8211 41.9006 46.8211 41.5006 46.2211C41.1006 45.7211 41.1006 44.9211 41.7006 44.4211C42.2006 44.0211 43.1006 44.0211 43.5006 44.6211C43.8006 45.0211 43.9007 45.6211 43.6007 46.0211C43.6007 46.2211 43.5007 46.3211 43.3007 46.4211Z" fill="#C2DF3A"/>
<path d="M49.5006 30.7213C48.8006 30.8213 48.2007 30.2213 48.1007 29.5213C48.0007 28.8213 48.6007 28.2213 49.3007 28.1213C50.0007 28.0213 50.6006 28.6213 50.7006 29.3213C50.7006 29.6213 50.7006 29.8213 50.5006 30.0213C50.3006 30.4213 49.9006 30.7213 49.5006 30.7213Z" fill="#C2DF3A"/>
<path d="M34.7006 50.5211C34.0006 50.6211 33.3006 50.2211 33.2006 49.5211C33.1006 48.8211 33.5006 48.1211 34.2006 48.0211C34.9006 47.9211 35.6006 48.3211 35.7006 49.0211C35.8006 49.3211 35.7007 49.6211 35.6007 49.9211C35.4007 50.2211 35.1006 50.4211 34.7006 50.5211Z" fill="#C2DF3A"/>
<path d="M47.2007 22.0212C46.6007 22.4212 45.8007 22.2211 45.4007 21.6211C45.0007 21.0211 45.2007 20.2211 45.8007 19.8211C46.4007 19.4211 47.2007 19.6211 47.6007 20.2211C47.9007 20.6211 47.9007 21.1212 47.6007 21.5212C47.6007 21.7212 47.4007 21.9212 47.2007 22.0212Z" fill="#C2DF3A"/>
<path d="M25.1007 50.1213C24.4007 49.9213 24.0007 49.2213 24.2007 48.5213C24.4007 47.8213 25.1007 47.4213 25.8007 47.6213C26.5007 47.8213 26.9007 48.5213 26.7007 49.2213C26.7007 49.3213 26.6007 49.4213 26.6007 49.5213C26.3007 50.0213 25.7007 50.3213 25.1007 50.1213Z" fill="#C2DF3A"/>
<path d="M39.5006 15.8211C39.4006 15.8211 39.4006 15.8211 39.5006 15.8211C39.4006 15.8211 39.4006 15.8211 39.5006 15.8211C38.8006 15.4211 38.6006 14.6211 39.0006 14.0211C39.3006 13.4211 40.1006 13.2211 40.7006 13.5211C41.3006 13.9211 41.5006 14.6211 41.2006 15.2211C40.8006 15.9211 40.1006 16.2211 39.5006 15.8211Z" fill="#C2DF3A"/>
<path d="M18.6006 45.3212C18.1006 45.8212 17.3007 45.8212 16.8007 45.3212C16.3007 44.8212 16.3007 44.0212 16.8007 43.5212C17.3007 43.0212 18.1006 43.0212 18.6006 43.5212C19.0006 43.9212 19.1007 44.6212 18.8007 45.1212C18.8007 45.1212 18.7006 45.2212 18.6006 45.3212Z" fill="#C2DF3A"/>
<path d="M31.4007 13.5212C30.7007 13.5212 30.1006 12.9212 30.2006 12.2212C30.2006 11.5212 30.8006 10.9212 31.5006 11.0212C32.2006 11.0212 32.8006 11.6212 32.7006 12.3212C32.7006 12.5212 32.6006 12.7212 32.5006 12.9212C32.3006 13.2212 31.9007 13.5212 31.4007 13.5212Z" fill="#C2DF3A"/>
<path d="M13.3006 38.0211C12.6006 38.2211 11.9006 37.9211 11.7006 37.2211C11.5006 36.5211 11.8006 35.8211 12.5006 35.6211C13.2006 35.4211 13.9006 35.7211 14.1006 36.4211C14.2006 36.8211 14.2006 37.1211 14.0006 37.4211C13.9006 37.7211 13.7006 37.9211 13.3006 38.0211Z" fill="#C2DF3A"/>
<path d="M23.2006 15.1213C22.6006 15.4213 21.8006 15.1213 21.5006 14.5213C21.2006 13.9213 21.5007 13.1213 22.1007 12.8213C22.7007 12.5213 23.5007 12.8213 23.8007 13.4213C24.0007 13.8213 24.0007 14.2213 23.8007 14.6213C23.6007 14.8213 23.4006 15.0213 23.2006 15.1213Z" fill="#C2DF3A"/>
<path d="M12.0006 29.2211C11.3006 29.1211 10.8006 28.4211 10.9006 27.7211C11.0006 27.0211 11.7006 26.5211 12.4006 26.6211C13.1006 26.7211 13.6006 27.4211 13.5006 28.1211C13.5006 28.3211 13.4006 28.4211 13.3006 28.5211C13.1006 29.0211 12.5006 29.2211 12.0006 29.2211Z" fill="#C2DF3A"/>
<path d="M16.7006 20.4211C16.3006 21.0211 15.5006 21.1211 14.9006 20.7211C14.3006 20.3211 14.2007 19.5211 14.6007 18.9211C15.0007 18.3211 15.8006 18.2211 16.4006 18.6211C16.9006 19.0211 17.1006 19.7211 16.7006 20.3211C16.8006 20.3211 16.8006 20.4211 16.7006 20.4211Z" fill="#C2DF3A"/>
</svg>
